<svg xmlns="http://www.w3.org/2000/svg" viewBox="0 0 296.24 70.51"><title>Oppo logo - Brandlogos.net</title><path d="M346.56,393.71c-14.76,0-24.6-7.26-24.6-18.1s9.85-18.1,24.6-18.1,24.61,7.26,24.61,18.1-9.85,18.1-24.61,18.1m0-45c-9.71,0-18.33,2.57-24.6,7.07v-4.57h-10.6v68H322V395.41c6.28,4.5,14.89,7.07,24.6,7.07,21.11,0,35.21-10.78,35.21-26.87s-14.09-26.87-35.21-26.87m75.48,45c-14.76,0-24.6-7.26-24.6-18.1s9.85-18.1,24.6-18.1,24.61,7.26,24.61,18.1-9.85,18.1-24.61,18.1m0-45c-9.71,0-18.33,2.57-24.6,7.07v-4.57h-10.6v68h10.6V395.41c6.28,4.5,14.89,7.07,24.6,7.07,21.11,0,35.21-10.78,35.21-26.87S443.15,348.75,422,348.75m74.87,45c-14.76,0-24.61-7.26-24.61-18.1s9.85-18.1,24.61-18.1,24.61,7.26,24.61,18.1-9.85,18.1-24.61,18.1m0-45c-21.11,0-35.21,10.78-35.21,26.87s14.09,26.87,35.21,26.87,35.21-10.78,35.21-26.87S518,348.75,496.91,348.75m-225.82,45c-14.76,0-24.61-7.26-24.61-18.1s9.85-18.1,24.61-18.1,24.6,7.26,24.6,18.1-9.85,18.1-24.6,18.1m0-45c-21.11,0-35.21,10.78-35.21,26.87s14.09,26.87,35.21,26.87,35.21-10.78,35.21-26.87-14.09-26.87-35.21-26.87" transform="translate(-235.88 -348.75)" style="fill:#006c33"/></svg>